# xmcd
#
# Track frame offsets: 
#        150
#        14724
#        28241
#        46078
#        62141
#        76738
#        96299
#        114684
#
# Disc length: 1776 seconds
#
# Revision: 0
# Processed by: cddbd v1.5.2PL0 Copyright (c) Steve Scherf et al.
# Submitted via: ExactAudioCopy v0.99pb3
#
DISCID=6406ee08
DTITLE=Absentee - Hawaiian Disco
DYEAR=2003
DGENRE=Radiotone
TTITLE0=Rainy Days Swimming
TTITLE1=Twisted
TTITLE2=You've Been A Lot Stronger
TTITLE3=Before I Wash Up
TTITLE4=The Greatness Of Everything
TTITLE5=Kauai Stars
TTITLE6=Your Locks Look Easy
TTITLE7=Homegroan
EXTD=
EXTT0=
EXTT1=
EXTT2=
EXTT3=
EXTT4=
EXTT5=
EXTT6=
EXTT7=
PLAYORDER=
